<svg id="Layer_1" data-name="Layer 1" xmlns="http://www.w3.org/2000/svg" viewBox="0 0 144.48 46.29"><defs><style>.cls-1{fill:none;stroke:#000;stroke-miterlimit:10;stroke-width:1.2px;}</style></defs><path d="M1.8,2.18H5a7.55,7.55,0,0,1,3,.47A3.64,3.64,0,0,1,9.68,4.07a3.91,3.91,0,0,1,.61,2.12,3.79,3.79,0,0,1-.54,2A3.94,3.94,0,0,1,8.19,9.64a5.92,5.92,0,0,1,2,1,4.16,4.16,0,0,1,1.07,1.42,4.3,4.3,0,0,1,.38,1.8,4.41,4.41,0,0,1-1.44,3.33A5.4,5.4,0,0,1,6.3,18.57H1.8ZM3.4,3.79V9h.94a7.36,7.36,0,0,0,2.51-.31,2.71,2.71,0,0,0,1.27-1,2.56,2.56,0,0,0,.47-1.52,2.15,2.15,0,0,0-.78-1.76A4,4,0,0,0,5.3,3.79Zm0,6.89V17h2a7.19,7.19,0,0,0,2.64-.35,3,3,0,0,0,1.34-1.09,2.83,2.83,0,0,0,.51-1.62A2.76,2.76,0,0,0,9.2,12a3.6,3.6,0,0,0-2-1.12,14.63,14.63,0,0,0-2.91-.2Z" transform="translate(0.24 -1.46)"/><path d="M14.36,1.77h1.56v16.8H14.36Z" transform="translate(0.24 -1.46)"/><path d="M29.36,14.55l1.32.69a7.33,7.33,0,0,1-1.49,2,6,6,0,0,1-1.91,1.18,6.71,6.71,0,0,1-2.4.41,5.82,5.82,0,0,1-4.64-1.94,6.59,6.59,0,0,1-1.67-4.4A6.48,6.48,0,0,1,20,8.43a5.77,5.77,0,0,1,4.8-2.29,6,6,0,0,1,4.95,2.35,6.56,6.56,0,0,1,1.34,4.14H20.18a5,5,0,0,0,1.34,3.46,4.33,4.33,0,0,0,3.23,1.35,5.06,5.06,0,0,0,1.8-.32A4.8,4.8,0,0,0,28,16.27,7.23,7.23,0,0,0,29.36,14.55Zm0-3.27a5.17,5.17,0,0,0-.9-2,4.28,4.28,0,0,0-1.58-1.2,4.78,4.78,0,0,0-2.07-.46,4.4,4.4,0,0,0-3.06,1.15,5.11,5.11,0,0,0-1.42,2.5Z" transform="translate(0.24 -1.46)"/><path d="M40.08,7.78l-1,1A3.61,3.61,0,0,0,36.63,7.6a1.81,1.81,0,0,0-1.3.5,1.54,1.54,0,0,0-.54,1.17,1.71,1.71,0,0,0,.45,1.12,6.05,6.05,0,0,0,1.87,1.28,7,7,0,0,1,2.37,1.74,3.17,3.17,0,0,1,.61,1.91A3.4,3.4,0,0,1,39,17.84a3.58,3.58,0,0,1-2.62,1,4.48,4.48,0,0,1-2-.46,4.25,4.25,0,0,1-1.58-1.26l1-1.11a3.41,3.41,0,0,0,2.53,1.35,2.29,2.29,0,0,0,1.6-.6,1.87,1.87,0,0,0,.66-1.42,1.83,1.83,0,0,0-.44-1.19,7,7,0,0,0-2-1.29A6.34,6.34,0,0,1,34,11.23a3.11,3.11,0,0,1-.59-1.88,3.05,3.05,0,0,1,.94-2.3,3.27,3.27,0,0,1,2.38-.91A4.9,4.9,0,0,1,40.08,7.78Z" transform="translate(0.24 -1.46)"/><path d="M48.93,7.78l-1,1A3.59,3.59,0,0,0,45.49,7.6a1.81,1.81,0,0,0-1.3.5,1.52,1.52,0,0,0-.55,1.17,1.71,1.71,0,0,0,.45,1.12A6.13,6.13,0,0,0,46,11.67a6.84,6.84,0,0,1,2.36,1.74A3.18,3.18,0,0,1,49,15.32a3.4,3.4,0,0,1-1.05,2.52,3.6,3.6,0,0,1-2.62,1,4.55,4.55,0,0,1-2-.46,4.33,4.33,0,0,1-1.58-1.26l1-1.11a3.43,3.43,0,0,0,2.54,1.35,2.31,2.31,0,0,0,1.6-.6,1.89,1.89,0,0,0,.65-1.42A1.82,1.82,0,0,0,47,14.19a7.09,7.09,0,0,0-2-1.29,6.44,6.44,0,0,1-2.23-1.67,3.18,3.18,0,0,1-.59-1.88,3.05,3.05,0,0,1,.94-2.3,3.3,3.3,0,0,1,2.39-.91A4.9,4.9,0,0,1,48.93,7.78Z" transform="translate(0.24 -1.46)"/><path d="M50.39,6.45H52l4.17,9.33,4-9.33h1.66L54.68,23H53l2.34-5.35Z" transform="translate(0.24 -1.46)"/><path d="M68.87,3.79V2.18h9V3.79H74.19V18.57H72.52V3.79Z" transform="translate(0.24 -1.46)"/><path d="M80.49,1.46a1.24,1.24,0,0,1,.91.38,1.25,1.25,0,0,1,.38.91,1.23,1.23,0,0,1-.38.9,1.2,1.2,0,0,1-.91.38,1.19,1.19,0,0,1-.89-.38,1.19,1.19,0,0,1-.38-.9,1.22,1.22,0,0,1,.38-.91A1.23,1.23,0,0,1,80.49,1.46Zm-.77,5h1.56V18.57H79.72Z" transform="translate(0.24 -1.46)"/><path d="M84.51,6.45h1.56V8.54a6.09,6.09,0,0,1,1.67-1.69,4.8,4.8,0,0,1,2.49-.71,4.16,4.16,0,0,1,1.67.34,3.55,3.55,0,0,1,1.29.92A4.73,4.73,0,0,1,94.06,9a5.72,5.72,0,0,1,2-2.16,4.54,4.54,0,0,1,2.51-.74,4,4,0,0,1,2.22.63,3.84,3.84,0,0,1,1.42,1.77,9.5,9.5,0,0,1,.47,3.41v6.62H101V12a8.81,8.81,0,0,0-.28-2.68,2.46,2.46,0,0,0-1-1.17,2.81,2.81,0,0,0-1.6-.45,3.5,3.5,0,0,0-2.07.67,3.79,3.79,0,0,0-1.37,1.78,11.27,11.27,0,0,0-.44,3.72v4.75H92.77V12.36a10.8,10.8,0,0,0-.27-3,2.47,2.47,0,0,0-1-1.25,2.74,2.74,0,0,0-1.62-.48,3.52,3.52,0,0,0-2,.65,3.85,3.85,0,0,0-1.39,1.76,9.45,9.45,0,0,0-.45,3.37v5.14H84.51Z" transform="translate(0.24 -1.46)"/><path d="M116.12,14.55l1.31.69a7.33,7.33,0,0,1-1.49,2A5.92,5.92,0,0,1,114,18.47a6.62,6.62,0,0,1-2.39.41A5.8,5.8,0,0,1,107,16.94a6.66,6.66,0,0,1-.26-8.51,5.79,5.79,0,0,1,4.81-2.29,6,6,0,0,1,5,2.35,6.56,6.56,0,0,1,1.33,4.14h-10.9a4.93,4.93,0,0,0,1.35,3.46,4.3,4.3,0,0,0,3.22,1.35,5,5,0,0,0,1.8-.32,4.69,4.69,0,0,0,1.49-.85A7.5,7.5,0,0,0,116.12,14.55Zm0-3.27a5.18,5.18,0,0,0-.91-2,4.2,4.2,0,0,0-1.58-1.2,4.73,4.73,0,0,0-2.06-.46,4.44,4.44,0,0,0-3.07,1.15,5.1,5.1,0,0,0-1.41,2.5Z" transform="translate(0.24 -1.46)"/><path d="M64.49,29.66l-1.29,1a7,7,0,0,0-2.57-2.11,7.48,7.48,0,0,0-3.29-.72,7.23,7.23,0,0,0-3.63.95,6.75,6.75,0,0,0-2.59,2.52,7,7,0,0,0-.92,3.57,6.69,6.69,0,0,0,2.06,5,7.11,7.11,0,0,0,5.18,2,7.27,7.27,0,0,0,5.76-2.7l1.29,1a8.1,8.1,0,0,1-3,2.41,9.61,9.61,0,0,1-4.1.86,8.51,8.51,0,0,1-6.78-2.87,8.61,8.61,0,0,1-2.08-5.83A8.14,8.14,0,0,1,51,28.66a8.72,8.72,0,0,1,6.32-2.45,9.19,9.19,0,0,1,4.14.91A7.89,7.89,0,0,1,64.49,29.66Z" transform="translate(0.24 -1.46)"/><path d="M79.6,30.89V43H78.06V40.92a6.85,6.85,0,0,1-2.2,1.8,6.14,6.14,0,0,1-7.06-1.27A6.23,6.23,0,0,1,67,36.91a6.15,6.15,0,0,1,1.83-4.47,6,6,0,0,1,4.43-1.87,5.78,5.78,0,0,1,2.7.64,6.22,6.22,0,0,1,2.12,1.9V30.89Zm-6.24,1.19a4.69,4.69,0,0,0-4.15,2.44A4.82,4.82,0,0,0,68.56,37a5,5,0,0,0,.65,2.45A4.77,4.77,0,0,0,71,41.23a4.62,4.62,0,0,0,2.37.65,4.79,4.79,0,0,0,2.43-.65,4.53,4.53,0,0,0,1.76-1.74A5,5,0,0,0,78.16,37a4.81,4.81,0,0,0-1.39-3.52A4.59,4.59,0,0,0,73.36,32.08Z" transform="translate(0.24 -1.46)"/><path d="M84.46,26.39H86v4.5h2.47v1.34H86V43H84.46V32.23H82.34V30.89h2.12Z" transform="translate(0.24 -1.46)"/><path d="M101,39l1.31.69a7.19,7.19,0,0,1-1.49,2A6,6,0,0,1,99,42.91a6.67,6.67,0,0,1-2.4.41,5.77,5.77,0,0,1-4.63-2A6.53,6.53,0,0,1,90.24,37a6.44,6.44,0,0,1,1.42-4.11,5.8,5.8,0,0,1,4.8-2.3,6,6,0,0,1,5,2.35,6.53,6.53,0,0,1,1.34,4.15H91.85a4.93,4.93,0,0,0,1.35,3.46,4.3,4.3,0,0,0,3.22,1.35,5.25,5.25,0,0,0,1.8-.32,4.82,4.82,0,0,0,1.49-.86A7.07,7.07,0,0,0,101,39Zm0-3.26a5.11,5.11,0,0,0-.91-2,4.41,4.41,0,0,0-1.58-1.21,4.9,4.9,0,0,0-2.06-.45,4.46,4.46,0,0,0-3.07,1.14A5.19,5.19,0,0,0,92,35.72Z" transform="translate(0.24 -1.46)"/><path d="M105.07,30.89h1.59v1.77a5.82,5.82,0,0,1,1.5-1.57,3,3,0,0,1,1.65-.52,2.8,2.8,0,0,1,1.38.42l-.81,1.31a2.19,2.19,0,0,0-.82-.21,2.27,2.27,0,0,0-1.51.64,4.06,4.06,0,0,0-1.1,2,19.22,19.22,0,0,0-.29,4.19V43h-1.59Z" transform="translate(0.24 -1.46)"/><path d="M113.06,25.9a1.22,1.22,0,0,1,.91.38,1.27,1.27,0,0,1,0,1.81,1.25,1.25,0,0,1-.91.38,1.28,1.28,0,0,1-.9-2.19A1.19,1.19,0,0,1,113.06,25.9Zm-.77,5h1.55V43h-1.55Z" transform="translate(0.24 -1.46)"/><path d="M117.09,30.89h1.56v2.17a6.46,6.46,0,0,1,2.07-1.87,5.09,5.09,0,0,1,2.47-.62,4.29,4.29,0,0,1,2.41.7,4.17,4.17,0,0,1,1.56,1.86,9.91,9.91,0,0,1,.5,3.64V43H126.1V37.22a13.73,13.73,0,0,0-.18-2.79,3,3,0,0,0-1-1.81,3.1,3.1,0,0,0-2-.61,3.85,3.85,0,0,0-2.54.94,4.4,4.4,0,0,0-1.47,2.31,16.13,16.13,0,0,0-.22,3.3V43h-1.56Z" transform="translate(0.24 -1.46)"/><path d="M141.44,30.89H143v9.65a11.31,11.31,0,0,1-.44,3.73,4.85,4.85,0,0,1-2.13,2.58,7,7,0,0,1-3.64.9,8.44,8.44,0,0,1-2.8-.44,5.6,5.6,0,0,1-2-1.19A7,7,0,0,1,130.53,44h1.69A4.44,4.44,0,0,0,134,45.73a6.52,6.52,0,0,0,5.4,0A3.72,3.72,0,0,0,141,44.23a6.74,6.74,0,0,0,.46-2.91V40.7a5.88,5.88,0,0,1-2.15,1.71,6.19,6.19,0,0,1-2.7.59,6.32,6.32,0,0,1-3.14-.82,5.89,5.89,0,0,1-2.27-2.24,6,6,0,0,1-.81-3.08,6.26,6.26,0,0,1,3.15-5.44,6.26,6.26,0,0,1,3.12-.85,5.76,5.76,0,0,1,2.54.57A6.86,6.86,0,0,1,141.44,33Zm-4.6,1.19a4.91,4.91,0,0,0-2.46.64,4.73,4.73,0,0,0-1.78,1.77,4.84,4.84,0,0,0-.64,2.44,4.42,4.42,0,0,0,1.33,3.3,4.76,4.76,0,0,0,3.47,1.3,4.69,4.69,0,0,0,3.45-1.29,4.52,4.52,0,0,0,1.31-3.39,4.94,4.94,0,0,0-.6-2.45,4.41,4.41,0,0,0-1.7-1.7A4.83,4.83,0,0,0,136.84,32.08Z" transform="translate(0.24 -1.46)"/><line class="cls-1" y1="21.64" x2="144.48" y2="21.64"/></svg>